<?xml version="1.0" encoding="iso-8859-1"?>
<svg xmlns="http://www.w3.org/2000/svg" version="1.1" width="512" height="512" x="0" y="0" viewBox="0 0 511.546 511.546" style="enable-background:new 0 0 512 512">
    <g>
        <path d="m431.524 162.316h-30.325v-86.95c0-8.361 6.778-15.14 15.14-15.14h.046c8.361 0 15.14 6.778 15.14 15.14v86.95z" fill="#c9eefa"/>
        <path d="m110.347 162.316h-30.325v-86.95c0-8.361 6.778-15.14 15.14-15.14h.046c8.361 0 15.14 6.778 15.14 15.14v86.95z" fill="#c9eefa"/>
        <path d="m421.948 407.918c-8.234 0-14.909-6.659-14.909-14.872 0-88.847-62.2-161.129-151.267-161.129s-151.267 72.282-151.267 161.129c0 8.213-6.675 14.872-14.909 14.872s-14.909-6.659-14.909-14.872c0-105.248 75.576-190.873 181.084-190.873s181.084 85.625 181.084 190.873c.002 8.214-6.673 14.872-14.907 14.872z" fill="#65b7c7"/>
        <path d="m255.974 269.461h81.881c16.766 0 30.357-13.558 30.357-30.282v-30.633h54.08c12.513 0 24.135-6.446 30.726-17.04l7.235-11.63c4.865-7.82-.782-17.921-10.017-17.921h-82.758c-3.034-13.531-15.144-23.643-29.623-23.643h-163.761c-14.479 0-26.589 10.112-29.623 23.643h-82.758c-9.236 0-14.882 10.101-10.017 17.921l7.235 11.63c6.591 10.594 18.213 17.04 30.726 17.04h54.08v30.633c0 16.724 13.591 30.282 30.357 30.282z" fill="#ff8fb4"/>
        <g fill="#fa7aa5">
            <path d="m367.478 161.956c-3.034-13.531-15.144-23.643-29.623-23.643h-40c15.654 0 25.075 11.116 30.357 23.643v77.223c0 16.724-13.591 30.282-30.357 30.282h40c16.766 0 30.357-13.558 30.357-30.282v-77.223z" fill="#fa7aa5"/>
            <path d="m450.236 161.956h-40c9.236 0 14.882 10.101 10.017 17.921l-7.235 11.63c-6.591 10.594-18.213 17.04-30.726 17.04h40c12.512 0 24.135-6.446 30.726-17.04l7.235-11.63c4.865-7.82-.781-17.921-10.017-17.921z" fill="#fa7aa5"/>
        </g>
        <path d="m255.974 269.461h78.987l-20.811 49.421c-4.37 10.377-14.553 17.128-25.836 17.128h-64.68c-11.284 0-21.467-6.751-25.836-17.128l-20.811-49.421z" fill="#c9eefa"/>
        <ellipse cx="255.773" cy="266.898" fill="#65b7c7" rx="40.197" ry="40.098"/>
        <path d="m504.273 80.023h-65.249v-4.657c0-12.483-10.156-22.64-22.686-22.64-12.483 0-22.64 10.156-22.64 22.64v4.657h-65.248c-9.697 0-9.697 15 0 15h65.249v59.433h-20.739c-5.702-13.998-19.612-23.644-35.104-23.644h-18.082c-4.143 0-7.5 3.358-7.5 7.5s3.357 7.5 7.5 7.5h18.082c10.378 0 19.578 7.152 22.141 17.104v17.006c0 9.697 15 9.697 15 0v-10.467h75.24c3.765.733 4.982 2.886 3.649 6.458l-7.235 11.63c-5.26 8.454-14.365 13.501-24.357 13.501h-54.08c-4.143 0-7.5 3.358-7.5 7.5v30.633c0 14.373-12.876 22.553-25.876 22.782h-31.621c-7.412-56.573-87.494-56.531-94.884 0h-31.193c-13.099-.266-25.901-8.081-25.901-22.782v-30.633c0-4.142-3.357-7.5-7.5-7.5h-54.083c-9.992 0-19.098-5.047-24.357-13.501l-7.234-11.631c-1.333-3.573-.117-5.725 3.648-6.458h75.258v10.467c0 9.697 15 9.697 15 0v-17.074c2.587-9.917 11.769-17.036 22.123-17.036h96.585c4.143 0 7.5-3.358 7.5-7.5s-3.357-7.5-7.5-7.5h-96.585c-15.492 0-29.402 9.645-35.104 23.644h-21.142v-59.432h65.249c9.697 0 9.697-15 0-15h-65.249v-4.657c0-12.483-10.156-22.64-22.686-22.64-12.483 0-22.64 10.156-22.64 22.64v4.657h-65.249c-9.697 0-9.697 15 0 15h65.249v59.433h-10.81c-14.851 0-24.249 16.741-16.385 29.382l7.234 11.63c8.016 12.885 21.883 20.578 37.094 20.578h46.581v21.643c-24.418 20.665-43.494 47.887-55.286 78.953-3.192 8.411 10.217 15.348 14.023 5.323 9.849-25.946 25.168-48.963 44.636-67.2 2.086 4.579 5.061 8.672 8.704 12.058-32.66 31.347-51.307 77.087-51.307 126.223 0 4.065-3.323 7.372-7.408 7.372s-7.409-3.307-7.409-7.372c0-10.265.755-20.535 2.244-30.523 1.429-9.59-13.407-11.805-14.836-2.212-1.598 10.718-2.408 21.732-2.408 32.735 1.228 29.673 43.589 29.677 44.817 0 0-44.779 17.288-87.211 49.665-118.174 3.259 1.133 6.719 1.833 10.311 2.031l18.904 44.89c5.555 13.193 18.409 21.718 32.748 21.718h64.68c14.339 0 27.193-8.524 32.749-21.717l18.903-44.891c3.483-.192 6.843-.855 10.015-1.929 31.541 28.594 49.559 71.402 49.559 118.072 0 12.336 10.053 22.372 22.408 22.372 12.356 0 22.409-10.036 22.409-22.372 0-61.45-25.005-117.882-68.645-155.015v-21.985h46.58c15.211 0 29.078-7.693 37.094-20.578l7.235-11.63c7.864-12.641-1.535-29.382-16.386-29.382h-11.212v-59.433h65.249c9.698 0 9.698-15 .001-15zm-416.751-4.657c.348-10.092 14.97-10.131 15.325 0v4.657h-15.325zm0 19.657h15.325v59.433h-15.325zm168.251 139.277c18.029 0 32.697 14.623 32.697 32.598s-14.668 32.598-32.697 32.598c-17.466 0-32.697-15.171-32.697-32.598 0-17.975 14.668-32.598 32.697-32.598zm51.466 81.672c-3.208 7.617-10.636 12.539-18.925 12.539h-64.68c-8.289 0-15.717-4.921-18.924-12.539l-16.427-39.011h20.866c11.63 49.799 81.638 49.764 93.248 0h21.269zm122.118 77.074c-.345 9.748-14.468 9.763-14.817 0 0-49.239-18.526-94.664-51.11-126.034 3.667-3.359 6.671-7.428 8.79-11.987 36.425 34.233 57.137 83.988 57.137 138.021zm-20.658-317.68c.348-10.092 14.97-10.131 15.325 0v4.657h-15.325zm15.325 79.09h-15.325v-59.433h15.325z" fill="#000000" class=""/>
        <path d="m255.763 288.784c9.697 0 9.697-15 0-15-4.341 0-7.872-3.515-7.872-7.835 0-9.697-15-9.697-15 0 0 12.592 10.261 22.835 22.872 22.835z" fill="#000000" class=""/>
        <path d="m292.975 407.005c6.866-6.848-3.728-17.468-10.594-10.62-14.561 14.524-38.253 14.526-52.813 0-6.865-6.849-17.459 3.771-10.594 10.62 20.402 20.353 53.598 20.349 74.001 0z" fill="#000000" class=""/>
        <path d="m306.849 422.842c-28.053 27.984-73.697 27.984-101.75 0-6.867-6.847-17.459 3.771-10.594 10.62 33.894 33.811 89.043 33.811 122.938 0 6.865-6.849-3.727-17.467-10.594-10.62z" fill="#000000" class=""/>
    </g>
</svg>
