<svg xmlns="http://www.w3.org/2000/svg" version="1.1"
     width="512" height="512" x="0" y="0" viewBox="0 0 512 512"
     style="enable-background:new 0 0 512 512" fill="#e00d0d">
    <g>
        <path d="m133.092 137.911h26.872c4.142 0 7.5-3.358 7.5-7.5s-3.358-7.5-7.5-7.5h-26.872c-4.142 0-7.5 3.358-7.5 7.5s3.358 7.5 7.5 7.5z"/>
        <path d="m344.535 130.411c0 4.142 3.357 7.5 7.5 7.5h26.9c4.143 0 7.5-3.358 7.5-7.5s-3.357-7.5-7.5-7.5h-26.9c-4.143 0-7.5 3.358-7.5 7.5z"/>
        <path d="m323.916 70.021c1.921 0 3.843-.734 5.308-2.201l18.992-19.021c2.927-2.931 2.923-7.68-.008-10.606-2.932-2.927-7.68-2.923-10.607.008l-18.992 19.021c-2.927 2.931-2.923 7.68.008 10.606 1.464 1.462 3.381 2.193 5.299 2.193z"/>
        <path d="m182.808 67.824c1.464 1.465 3.384 2.197 5.303 2.197s3.839-.732 5.303-2.197c2.929-2.929 2.929-7.677 0-10.606l-19.02-19.021c-2.929-2.929-7.678-2.929-10.606 0-2.929 2.929-2.929 7.677 0 10.606z"/>
        <path d="m255.999 41.873c4.143 0 7.5-3.358 7.5-7.5v-26.873c0-4.142-3.357-7.5-7.5-7.5-4.142 0-7.5 3.358-7.5 7.5v26.873c0 4.142 3.358 7.5 7.5 7.5z"/>
        <path d="m504.629 363.323-3.09-19.502c-.004-.025-.011-.049-.016-.074-.005-.026-.005-.053-.01-.079l-20.93-116.437c-.024-.153-.049-.306-.082-.455l-7.986-44.428c-.02-.108-.041-.216-.065-.323-2.546-11.284-12.262-19.272-23.627-19.427-.034 0-.068 0-.103 0l-129.589.019c5.045-9.914 7.748-20.974 7.748-32.204 0-39.085-31.797-70.883-70.881-70.883s-70.881 31.798-70.881 70.883c0 11.233 2.705 22.296 7.753 32.213h-69.416c-4.142 0-7.5 3.358-7.5 7.5s3.358 7.5 7.5 7.5h28.583l-5.98 43.281h-98.265l6.42-35.717c.903-3.734 4.295-7.502 9.119-7.592l25.505.028h.008c4.138 0 7.496-3.353 7.5-7.492.004-4.142-3.35-7.504-7.492-7.508l-25.568-.028c-.037 0-.073 0-.11 0-11.364.155-21.08 8.143-23.626 19.427-.024.107-.046.215-.066.324l-28.997 161.318c-.004.024-.005.048-.009.072-.005.027-.013.053-.017.081l-3.087 19.49c-1.272 7.937.651 15.386 5.417 20.976 5.024 5.895 12.606 9.141 21.349 9.141h188.686l.018 26.811h-14.349c-13.951 0-25.301 11.35-25.301 25.302v11.549h-13.504c-14.779 0-26.803 12.012-26.803 26.776v16.384c0 6.48 5.285 11.752 11.78 11.752h202.7c6.48 0 11.752-5.272 11.752-11.752v-16.384c0-14.764-12.024-26.776-26.804-26.776h-13.504v-11.549c0-13.952-11.35-25.302-25.301-25.302h-14.354v-26.811h56.192c4.143 0 7.5-3.358 7.5-7.5s-3.357-7.5-7.5-7.5h-311.209c-4.277 0-7.806-1.375-9.934-3.872-1.896-2.224-2.595-5.292-2.019-8.884l2.088-13.176h463.455l2.09 13.189c.573 3.58-.125 6.647-2.021 8.871-2.128 2.497-5.656 3.872-9.934 3.872h-97.906c-4.143 0-7.5 3.358-7.5 7.5s3.357 7.5 7.5 7.5h97.906c8.742 0 16.324-3.246 21.349-9.141 4.765-5.59 6.689-13.039 5.418-20.963zm-150.513 120.541v13.136h-196.233v-13.136c0-6.493 5.295-11.776 11.803-11.776h21.004 130.617 21.004c6.51 0 11.805 5.283 11.805 11.776zm-40.308-38.325v11.549h-115.617v-11.549c0-5.68 4.621-10.302 10.301-10.302h21.854.005 73.156c5.68 0 10.301 4.622 10.301 10.302zm-39.655-25.302h-36.311l-.018-26.811h36.33v26.811zm-25.654-126.024v43.281h-103.409l5.98-43.281zm-95.357-15 5.984-43.309h89.373v43.309zm110.358 15h97.429l5.98 43.281h-103.409zm0-15v-43.309h89.373l5.984 43.309zm0-101.589h41.906c.043 0 .086-.007.129-.007l39.283-.006 5.982 43.294h-87.3zm104.515 58.281h98.888l7.785 43.309h-100.689zm89.772-50.717 6.42 35.717h-98.264l-5.982-43.296 88.704-.013c4.826.088 8.218 3.857 9.122 7.592zm-257.669-54.777c0-30.814 25.068-55.883 55.881-55.883 30.812 0 55.881 25.069 55.881 55.883 0 11.71-3.515 22.772-10.199 32.207l-45.682.007h-45.678c-6.687-9.437-10.203-20.502-10.203-32.214zm-32.939 47.213h39.414 41.907v43.281h-87.3zm-23.195 58.281-5.984 43.308h-100.689l7.785-43.309h98.888zm-109.369 58.308h101.313l-5.899 42.696c-.027.196-.039.391-.051.585h-103.143zm347.407 43.281c-.012-.194-.024-.389-.051-.585l-5.899-42.696h101.312l7.78 43.281z"/>
    </g>
</svg>
